<svg width="643" height="544" viewBox="0 0 643 544" fill="none" xmlns="http://www.w3.org/2000/svg">
<path d="M568.048 88.0934C635.585 116.051 693.835 169.921 692.991 224.473C692.991 278.342 633.052 332.894 584.088 383.354C535.124 433.814 573.25 490.665 515 519.987C456.75 548.626 302.122 548.373 223.611 535.417C145.099 522.461 66.5879 486.32 27.7543 431.769C-10.2351 377.217 -7.70248 304.254 26.0659 250.385C59.8342 196.515 123.994 162.42 183.089 133.099C241.339 103.777 341.84 12.7252 406 1.81489C471.004 -9.09544 500.511 60.1357 568.048 88.0934Z" fill="url(#paint0_linear_47_44)"/>
<defs>
<linearGradient id="paint0_linear_47_44" x1="91.5658" y1="540.956" x2="538.513" y2="-106.892" gradientUnits="userSpaceOnUse">
<stop stop-color="#1D1B4F"/>
<stop offset="1" stop-color="#29258F"/>
</linearGradient>
</defs>
</svg>
